<svg xmlns="http://www.w3.org/2000/svg" viewBox="0 0 60.54 99.9"><defs><style>.cls-1{fill:#1d1d1b;}</style></defs><g id="Layer_2" data-name="Layer 2"><g id="Layer_2-2" data-name="Layer 2"><path class="cls-1" d="M36.66,99.9H23.78A22.16,22.16,0,0,1,1.64,77.76V29.26c.12-2.32.89-8,5.43-11.77C13,12.62,22.71,13.28,29.87,19c7.36-6.37,17.45-7.31,23.64-2.14,4.69,3.91,5.26,10,5.29,12.4V77.76A22.16,22.16,0,0,1,36.66,99.9ZM16.77,15.22a14.13,14.13,0,0,0-9.07,3c-4.23,3.48-4.95,8.87-5.06,11V77.76A21.16,21.16,0,0,0,23.78,98.9H36.66A21.16,21.16,0,0,0,57.8,77.76V29.26c0-2.28-.56-8-4.93-11.65C47,12.69,37.23,13.72,30.22,20l-.32.29L29.56,20A20.29,20.29,0,0,0,16.77,15.22Z"/><path d="M59.78,18.84l-1-1.77a21.34,21.34,0,0,0-4.51-6.57A23.34,23.34,0,0,0,38.92,4.14H21.72c-2.42.11-9.67.75-15.34,6.36a21.1,21.1,0,0,0-4,5.54L.79,18.76A21,21,0,0,1,6.38,6.86,21.52,21.52,0,0,1,21.72.5h17.2A21.39,21.39,0,0,1,54.27,6.86,20.83,20.83,0,0,1,59.78,18.84Z"/><path class="cls-1" d="M60.54,21.21l-2.19-3.89a21,21,0,0,0-4.43-6.46,22.61,22.61,0,0,0-15-6.22H21.72a22.85,22.85,0,0,0-15,6.22,20.38,20.38,0,0,0-3.92,5.41L0,21.13.3,18.7A21.48,21.48,0,0,1,6,6.51,22.16,22.16,0,0,1,21.73,0H38.92A21.87,21.87,0,0,1,54.64,6.52a21.23,21.23,0,0,1,5.63,12.26ZM21.62,1A21.07,21.07,0,0,0,6.74,7.21,20,20,0,0,0,1.87,15.9l.06-.11A21.63,21.63,0,0,1,6,10.14,23.88,23.88,0,0,1,21.7,3.64H38.92a23.7,23.7,0,0,1,15.71,6.5,21.88,21.88,0,0,1,4,5.49A20,20,0,0,0,53.91,7.2a21,21,0,0,0-15-6.2H21.62Z"/><path d="M11.25,11A48.36,48.36,0,0,1,47.73,9.5a31,31,0,0,0-17.87,5,27.75,27.75,0,0,0-6.24-2.71A28.44,28.44,0,0,0,11.25,11Z"/><path class="cls-1" d="M29.88,15.05l-.27-.16a27.55,27.55,0,0,0-18.29-3.45L7.74,12l3.3-1.5A48.89,48.89,0,0,1,47.9,9l3,1.07L47.71,10a30.55,30.55,0,0,0-17.58,4.88ZM15.69,10.11a28.27,28.27,0,0,1,14.16,3.77A31.21,31.21,0,0,1,44.73,9.05a47.81,47.81,0,0,0-30.19,1.08Z"/></g></g></svg>