<svg xmlns="http://www.w3.org/2000/svg" viewBox="0 0 24.59 39.65"><g id="Layer_2" data-name="Layer 2"><g id="Layer_2-2" data-name="Layer 2"><path d="M8,33.65l-6.85-4L16.48,3.2l6.84,4ZM2.55,29.33l5.11,3L22,7.52,16.84,4.57Z"/><path d="M23.73,6.59l-7-4L17.08,2A4,4,0,0,1,19.53.14a4,4,0,0,1,3,.4A4,4,0,0,1,24.05,6ZM18.15,2.21l5.2,3a3.09,3.09,0,0,0,.14-2,3,3,0,0,0-5.34-1Z"/><rect x="-4.14" y="17" width="29.59" height="1" transform="translate(-9.83 17.97) rotate(-59.98)"/><rect x="-2.54" y="17.92" width="29.59" height="1" transform="translate(-9.83 19.82) rotate(-59.98)"/><rect x="-0.8" y="18.93" width="29.59" height="1" transform="translate(-9.83 21.82) rotate(-59.98)"/><rect x="-1.67" y="32.55" width="5.68" height="1" transform="translate(-31.84 30.92) rotate(-84.28)"/><rect x="2.26" y="34.79" width="5.78" height="1" transform="translate(-19.77 9.77) rotate(-36.02)"/><rect x="3.94" y="28.5" width="1" height="6.9" transform="translate(-25.45 19.82) rotate(-60)"/><polygon points="2.81 36.99 0.61 38.59 0.89 35.88 2.81 36.99"/><path d="M0,39.65l.46-4.59,3.27,1.88ZM1.3,36.7l-.08.83L1.89,37Z"/><polygon points="2.59 37.44 2.58 37.44 3.03 36.54 2.59 37.44"/></g></g></svg>